<svg width="261" height="58" viewBox="0 0 261 58" fill="none" xmlns="http://www.w3.org/2000/svg">
<path d="M40.16 36.84C40.16 37.96 40.09 39.1267 39.95 40.34H12.86C13.0467 42.7667 13.8167 44.6333 15.17 45.94C16.57 47.2 18.2733 47.83 20.28 47.83C23.2667 47.83 25.3433 46.57 26.51 44.05H39.25C38.5967 46.6167 37.4067 48.9267 35.68 50.98C34 53.0333 31.8767 54.6433 29.31 55.81C26.7433 56.9767 23.8733 57.56 20.7 57.56C16.8733 57.56 13.4667 56.7433 10.48 55.11C7.49333 53.4767 5.16 51.1433 3.48 48.11C1.8 45.0767 0.96 41.53 0.96 37.47C0.96 33.41 1.77667 29.8633 3.41 26.83C5.09 23.7967 7.42333 21.4633 10.41 19.83C13.3967 18.1967 16.8267 17.38 20.7 17.38C24.48 17.38 27.84 18.1733 30.78 19.76C33.72 21.3467 36.0067 23.61 37.64 26.55C39.32 29.49 40.16 32.92 40.16 36.84ZM27.91 33.69C27.91 31.6367 27.21 30.0033 25.81 28.79C24.41 27.5767 22.66 26.97 20.56 26.97C18.5533 26.97 16.85 27.5533 15.45 28.72C14.0967 29.8867 13.2567 31.5433 12.93 33.69H27.91ZM64.6748 17.52C69.2481 17.52 72.8881 19.0133 75.5948 22C78.3481 24.94 79.7248 29 79.7248 34.18V57H67.8248V35.79C67.8248 33.1767 67.1481 31.1467 65.7948 29.7C64.4414 28.2533 62.6214 27.53 60.3348 27.53C58.0481 27.53 56.2281 28.2533 54.8748 29.7C53.5214 31.1467 52.8448 33.1767 52.8448 35.79V57H40.8748V17.94H52.8448V23.12C54.0581 21.3933 55.6914 20.04 57.7448 19.06C59.7981 18.0333 62.1081 17.52 64.6748 17.52ZM100.013 45.8L108.483 17.94H121.223L107.363 57H92.5927L78.7327 17.94H91.5427L100.013 45.8ZM126.681 13.88C124.581 13.88 122.854 13.2733 121.501 12.06C120.194 10.8 119.541 9.26 119.541 7.44C119.541 5.57333 120.194 4.03333 121.501 2.82C122.854 1.56 124.581 0.929996 126.681 0.929996C128.734 0.929996 130.414 1.56 131.721 2.82C133.074 4.03333 133.751 5.57333 133.751 7.44C133.751 9.26 133.074 10.8 131.721 12.06C130.414 13.2733 128.734 13.88 126.681 13.88ZM132.631 17.94V57H120.661V17.94H132.631ZM133.326 37.4C133.326 33.3867 134.072 29.8633 135.566 26.83C137.106 23.7967 139.182 21.4633 141.796 19.83C144.409 18.1967 147.326 17.38 150.546 17.38C153.299 17.38 155.702 17.94 157.756 19.06C159.856 20.18 161.466 21.65 162.586 23.47V17.94H174.556V57H162.586V51.47C161.419 53.29 159.786 54.76 157.686 55.88C155.632 57 153.229 57.56 150.476 57.56C147.302 57.56 144.409 56.7433 141.796 55.11C139.182 53.43 137.106 51.0733 135.566 48.04C134.072 44.96 133.326 41.4133 133.326 37.4ZM162.586 37.47C162.586 34.4833 161.746 32.1267 160.066 30.4C158.432 28.6733 156.426 27.81 154.046 27.81C151.666 27.81 149.636 28.6733 147.956 30.4C146.322 32.08 145.506 34.4133 145.506 37.4C145.506 40.3867 146.322 42.7667 147.956 44.54C149.636 46.2667 151.666 47.13 154.046 47.13C156.426 47.13 158.432 46.2667 160.066 44.54C161.746 42.8133 162.586 40.4567 162.586 37.47Z" fill="#515151"/>
<path d="M184.469 37.4C184.469 33.3867 185.216 29.8633 186.709 26.83C188.249 23.7967 190.326 21.4633 192.939 19.83C195.553 18.1967 198.469 17.38 201.689 17.38C204.443 17.38 206.846 17.94 208.899 19.06C210.999 20.18 212.609 21.65 213.729 23.47V17.94H225.699V57H213.729V51.47C212.563 53.29 210.929 54.76 208.829 55.88C206.776 57 204.373 57.56 201.619 57.56C198.446 57.56 195.553 56.7433 192.939 55.11C190.326 53.43 188.249 51.0733 186.709 48.04C185.216 44.96 184.469 41.4133 184.469 37.4ZM213.729 37.47C213.729 34.4833 212.889 32.1267 211.209 30.4C209.576 28.6733 207.569 27.81 205.189 27.81C202.809 27.81 200.779 28.6733 199.099 30.4C197.466 32.08 196.649 34.4133 196.649 37.4C196.649 40.3867 197.466 42.7667 199.099 44.54C200.779 46.2667 202.809 47.13 205.189 47.13C207.569 47.13 209.576 46.2667 211.209 44.54C212.889 42.8133 213.729 40.4567 213.729 37.47ZM234.779 13.88C232.679 13.88 230.952 13.2733 229.599 12.06C228.292 10.8 227.639 9.26 227.639 7.44C227.639 5.57333 228.292 4.03333 229.599 2.82C230.952 1.56 232.679 0.929996 234.779 0.929996C236.832 0.929996 238.512 1.56 239.819 2.82C241.172 4.03333 241.849 5.57333 241.849 7.44C241.849 9.26 241.172 10.8 239.819 12.06C238.512 13.2733 236.832 13.88 234.779 13.88ZM240.729 17.94V57H228.759V17.94H240.729ZM259.554 6.11L258.154 39.64H248.004L246.604 6.11H259.554ZM253.254 57.56C251.154 57.56 249.427 56.9533 248.074 55.74C246.767 54.48 246.114 52.94 246.114 51.12C246.114 49.2533 246.767 47.69 248.074 46.43C249.427 45.17 251.154 44.54 253.254 44.54C255.307 44.54 256.987 45.17 258.294 46.43C259.647 47.69 260.324 49.2533 260.324 51.12C260.324 52.94 259.647 54.48 258.294 55.74C256.987 56.9533 255.307 57.56 253.254 57.56Z" fill="#0085FF"/>
</svg>
